<svg id="noun_e_mail_3261411" data-name="noun_e mail_3261411" xmlns="http://www.w3.org/2000/svg" width="26.819" height="15" viewBox="0 0 26.819 15">
  <g id="Raggruppa_414" data-name="Raggruppa 414">
    <path id="Tracciato_500" data-name="Tracciato 500" d="M19.3,28.839a1.682,1.682,0,0,1-1.821,0L5,20V32.321a.576.576,0,0,0,.536.536H31.25a.576.576,0,0,0,.536-.536V20Z" transform="translate(-4.981 -17.857)" fill="#0099A1"/>
    <path id="Tracciato_501" data-name="Tracciato 501" d="M18.055,26.071a.536.536,0,0,0,.643,0l12.857-9.107a.637.637,0,0,0,.214-.589A.532.532,0,0,0,31.233,16H5.519a.645.645,0,0,0-.536.375.509.509,0,0,0,.214.589Z" transform="translate(-4.964 -16)" fill="#0099A1"/>
  </g>
</svg>
