<svg xmlns="http://www.w3.org/2000/svg" width="21.805" height="27.937" viewBox="0 0 21.805 27.937">
  <path id="Tracciato_1020" data-name="Tracciato 1020" d="M19.653,6c-3.525,0-6.406,3.389-6.406,7.561a22,22,0,0,0,2.623,9.315c1.355,2.826,2.813,5.345,3.288,7.054a.508.508,0,0,0,.653.405.58.58,0,0,0,.338-.405c.475-1.709,1.933-4.228,3.289-7.054a22,22,0,0,0,2.622-9.315C26.059,9.389,23.178,6,19.653,6Zm0,1.247c2.974,0,5.367,2.828,5.367,6.314a20.944,20.944,0,0,1-2.484,8.7c-1.045,2.178-2.166,4.15-2.882,5.9-.717-1.754-1.838-3.727-2.882-5.9a20.944,20.944,0,0,1-2.484-8.7C14.286,10.075,16.679,7.247,19.653,7.247Zm0,2.221c-1.9,0-3.459,1.835-3.459,4.092s1.558,4.083,3.459,4.083,3.459-1.825,3.459-4.083S21.553,9.469,19.653,9.469Zm0,1.247a2.65,2.65,0,0,1,2.42,2.845,2.641,2.641,0,0,1-2.42,2.835,2.64,2.64,0,0,1-2.419-2.835A2.65,2.65,0,0,1,19.653,10.716ZM15.4,24.8a.415.415,0,0,0-.073.01,13.461,13.461,0,0,0-4.393,1.471,4.782,4.782,0,0,0-1.356,1.13A2.513,2.513,0,0,0,9,28.965a2.707,2.707,0,0,0,1.007,2,7.362,7.362,0,0,0,2.322,1.315,21.277,21.277,0,0,0,7.324,1.16,21.28,21.28,0,0,0,7.324-1.16A7.363,7.363,0,0,0,29.3,30.962a2.707,2.707,0,0,0,1.007-2,2.513,2.513,0,0,0-.577-1.549,4.784,4.784,0,0,0-1.356-1.13,13.465,13.465,0,0,0-4.393-1.471.544.544,0,0,0-.593.526.619.619,0,0,0,.439.711,12.8,12.8,0,0,1,4.092,1.354,3.828,3.828,0,0,1,1.055.867,1.117,1.117,0,0,1,.292.692,1.411,1.411,0,0,1-.585.994,6.643,6.643,0,0,1-2.022,1.13,20.549,20.549,0,0,1-7.007,1.1,20.549,20.549,0,0,1-7.007-1.1,6.643,6.643,0,0,1-2.022-1.13,1.411,1.411,0,0,1-.585-.994,1.116,1.116,0,0,1,.292-.692,3.83,3.83,0,0,1,1.056-.867,12.79,12.79,0,0,1,4.092-1.354.606.606,0,0,0,.468-.683A.561.561,0,0,0,15.4,24.8Z" transform="translate(-8.75 -5.75)" fill="#0099A1" stroke="#0099A1" stroke-linecap="round" stroke-linejoin="round" stroke-width="0.5"/>
</svg>
