<svg id="noun_Phone_3400121" xmlns="http://www.w3.org/2000/svg" width="15.905" height="21.963" viewBox="0 0 15.905 21.963">
  <g id="Raggruppa_418" data-name="Raggruppa 418">
    <path id="Tracciato_524" data-name="Tracciato 524" d="M56.71,8.925l1.941,3.4c.277.485.277.832-.208,1.179-.832.485-1.872.971-2.08,1.872-.485,1.595,3.883,9.222,5.547,9.638.832.208,1.8-.416,2.7-.9.485-.277.763-.069,1.109.416l1.941,3.328c.277.555.416.9-.208,1.248a8.21,8.21,0,0,1-3.189,1.179c-6.934.347-15.115-13.8-11.3-19.622A7.716,7.716,0,0,1,55.6,8.509C56.156,8.093,56.433,8.439,56.71,8.925Z" transform="translate(-51.995 -8.323)" fill="#0099A1" fill-rule="evenodd"/>
  </g>
</svg>
